<?xml version="1.0" standalone="no"?>
<!DOCTYPE svg PUBLIC "-//W3C//DTD SVG 20010904//EN"
 "http://www.w3.org/TR/2001/REC-SVG-20010904/DTD/svg10.dtd">
<svg version="1.0" xmlns="http://www.w3.org/2000/svg"
 width="680.000000pt" height="680.000000pt" viewBox="0 0 680.000000 680.000000"
 preserveAspectRatio="xMidYMid meet">
<metadata>
Created by potrace 1.11, written by Peter Selinger 2001-2013
</metadata>
<g transform="translate(0.000000,680.000000) scale(0.100000,-0.100000)"
fill="#000000" stroke="none">
<path d="M4300 4823 c-14 -9 -27 -20 -30 -24 -3 -5 -22 -27 -42 -51 -21 -24
-47 -54 -58 -68 -12 -14 -45 -52 -74 -85 -29 -33 -72 -82 -96 -110 -68 -79
-144 -167 -155 -179 -6 -6 -37 -42 -70 -81 -32 -38 -64 -75 -69 -81 -6 -6 -33
-37 -61 -69 -27 -32 -59 -69 -70 -82 -11 -12 -24 -23 -28 -23 -4 0 -29 17 -56
38 -27 21 -75 49 -107 62 -68 27 -142 66 -165 87 -10 8 -41 15 -77 16 -59 2
-61 1 -96 -38 -38 -42 -103 -126 -203 -262 l-61 -82 -39 29 c-21 16 -43 30
-50 30 -6 0 -13 3 -15 8 -1 4 -28 20 -58 36 -30 16 -62 35 -71 43 -15 12 -20
9 -46 -24 -39 -50 -85 -123 -162 -258 -57 -99 -209 -322 -252 -368 -16 -18
-18 -16 -43 34 -50 99 -138 196 -321 355 -66 57 -165 137 -220 179 -89 67
-104 75 -144 75 -59 0 -66 -8 -291 -315 -87 -120 -300 -333 -465 -467 -66 -53
-172 -139 -235 -190 -81 -66 -121 -105 -137 -136 -11 -23 -57 -107 -101 -185
-87 -156 -134 -248 -128 -254 5 -5 46 31 159 140 66 64 98 88 132 97 24 7 52
20 62 29 10 9 40 27 67 41 27 14 54 34 60 45 80 147 276 366 374 418 28 15 56
27 60 27 5 0 3 -24 -4 -52 -7 -29 -18 -87 -25 -128 l-13 -75 -9 55 c-15 91
-27 130 -40 130 -14 0 -99 -85 -178 -180 -29 -36 -57 -67 -60 -70 -3 -3 -19
-38 -34 -78 -33 -86 -39 -91 -195 -164 -93 -44 -124 -64 -160 -105 -57 -63
-76 -115 -50 -138 16 -15 21 -14 66 8 57 28 125 65 279 154 61 35 101 56 90
48 -11 -9 -65 -49 -120 -89 -55 -41 -116 -91 -135 -111 l-35 -38 40 6 c22 4
65 9 95 13 30 3 73 10 95 15 71 15 93 12 107 -18 11 -23 20 -28 47 -26 79 3
126 75 182 278 55 197 58 214 73 315 2 19 8 58 12 85 4 28 8 57 9 65 7 56 19
90 32 90 16 0 15 -12 -23 -190 -32 -155 -52 -281 -59 -365 -4 -50 -13 -87 -35
-130 -17 -33 -34 -84 -39 -113 -8 -54 -4 -105 9 -100 4 2 34 35 66 73 70 84
86 98 96 82 4 -6 5 -14 3 -18 -8 -12 -18 -238 -12 -253 4 -9 13 -13 21 -10 16
6 22 29 31 109 17 145 27 199 50 271 25 79 41 109 123 245 70 113 24 106 -67
-12 -30 -38 -57 -69 -59 -69 -5 0 5 263 12 295 5 24 18 190 20 258 1 26 -4 65
-11 86 -12 36 -11 42 21 107 38 79 81 192 75 199 -9 8 -28 -13 -120 -135 -141
-186 -215 -256 -359 -339 l-55 -32 35 32 c147 132 287 284 368 399 26 36 49
67 52 70 3 3 45 65 94 138 49 72 93 132 98 132 4 0 16 -17 26 -37 9 -21 20
-40 23 -43 11 -9 21 -50 12 -50 -9 0 -8 -288 1 -297 3 -4 6 61 6 143 0 88 4
143 9 134 8 -13 86 -311 97 -365 12 -66 18 -88 40 -162 33 -110 46 -116 39
-16 -3 43 -7 85 -10 93 -2 8 -6 31 -9 50 -3 19 -7 44 -10 55 -9 46 -15 109 -9
95 3 -8 20 -46 38 -85 143 -309 400 -1116 418 -1312 8 -88 6 -85 -168 167 -70
102 -156 221 -190 265 -72 92 -182 207 -213 224 -20 11 -22 9 -22 -16 0 -43
-34 -151 -68 -218 -16 -33 -64 -111 -106 -174 -42 -63 -76 -120 -76 -127 0
-22 18 -26 123 -30 187 -6 215 -16 293 -97 79 -81 131 -100 318 -112 48 -4 99
-11 113 -16 13 -5 26 -9 28 -9 2 0 9 16 15 36 16 49 7 141 -30 310 -14 62
-103 352 -149 486 -43 123 -47 143 -31 133 17 -10 80 -13 86 -4 3 5 -11 66
-30 135 -44 155 -55 227 -35 219 14 -6 38 -40 166 -234 37 -57 82 -125 99
-150 17 -25 60 -102 95 -171 34 -69 90 -171 124 -228 33 -56 65 -112 71 -123
14 -24 34 -46 34 -36 0 3 -28 59 -63 124 -59 112 -167 336 -167 348 0 33 85
-52 215 -215 146 -182 187 -231 193 -226 6 7 -72 139 -226 381 -74 116 -172
272 -218 347 l-84 138 24 22 c13 13 47 46 77 74 30 28 71 70 92 94 l37 42 108
-78 c250 -181 359 -274 425 -364 22 -30 51 -64 65 -75 75 -61 100 -96 143
-195 45 -107 92 -170 126 -170 13 0 42 35 97 120 56 85 83 119 94 115 10 -4
12 0 8 11 -3 8 -6 24 -6 35 0 10 -5 19 -11 19 -6 0 -50 -40 -98 -89 -96 -98
-111 -103 -148 -53 -10 15 -27 54 -37 87 -29 95 -54 133 -103 155 -24 11 -59
35 -77 55 -37 39 -183 277 -240 392 -37 74 -42 87 -28 80 4 -3 15 -1 26 2 16
6 14 12 -23 50 -22 23 -42 49 -42 57 -2 16 -5 33 -8 37 -3 3 -8 40 -15 112
l-5 60 21 -30 c41 -56 218 -230 263 -258 24 -16 54 -27 66 -25 30 4 110 -127
107 -174 -3 -32 -2 -33 40 -36 79 -6 66 21 -194 387 -22 32 -41 64 -41 73 0 8
46 75 102 149 76 100 112 139 145 156 24 13 44 23 46 23 1 0 12 -30 24 -67 40
-126 62 -160 141 -215 13 -10 58 -41 99 -70 l75 -53 5 -65 c5 -57 0 -79 -37
-190 -23 -69 -43 -138 -43 -155 0 -19 12 -44 33 -69 44 -52 62 -45 36 14 -15
34 -19 56 -14 90 11 77 19 78 59 6 20 -36 60 -91 89 -122 29 -31 56 -66 61
-77 23 -53 157 -318 191 -377 21 -36 44 -76 51 -90 44 -82 144 -179 187 -180
22 0 22 -1 -8 73 -52 126 -149 308 -244 457 -14 22 -9 20 37 -13 28 -20 54
-37 57 -37 3 0 39 -22 80 -50 68 -46 115 -63 115 -41 0 4 17 30 38 57 21 27
46 69 56 94 18 46 129 235 153 258 7 7 13 17 13 22 0 4 34 64 75 132 93 152
62 102 272 441 98 158 194 319 215 357 31 60 124 190 135 190 4 0 -97 -194
-164 -312 -24 -43 -43 -79 -43 -82 0 -2 -20 -46 -44 -98 -135 -290 -247 -561
-237 -571 19 -19 79 37 168 158 14 19 5 -12 -28 -89 -27 -65 -58 -149 -69
-187 -18 -65 -18 -70 -2 -90 14 -17 31 -21 86 -24 72 -3 86 -10 89 -44 2 -30
24 -26 31 7 7 39 16 108 21 173 3 31 16 81 30 112 14 30 38 103 53 161 15 58
29 106 32 106 3 0 5 -64 5 -143 0 -126 -3 -149 -24 -205 -20 -54 -22 -65 -10
-73 19 -11 39 10 49 52 l7 34 21 -46 c51 -116 165 -187 187 -118 5 15 -1 29
-20 49 -25 26 -26 31 -20 101 9 117 14 142 34 200 49 138 65 154 117 113 35
-29 64 -30 94 -6 17 14 23 32 27 83 8 91 -12 149 -104 309 -60 106 -84 159
-109 245 -17 61 -29 116 -26 123 7 20 11 11 47 -107 49 -164 59 -180 141 -221
38 -20 70 -43 72 -51 1 -8 -7 -25 -18 -37 -44 -47 2 -82 53 -42 42 33 36 67
-24 147 -29 37 -61 74 -72 82 -41 29 -55 49 -52 77 1 16 6 67 11 114 11 117
10 125 -29 164 -33 33 -67 108 -67 149 0 25 34 17 98 -23 47 -30 49 -42 2 -15
-53 30 -53 10 -3 -82 36 -66 37 -70 41 -193 4 -106 8 -132 27 -170 27 -51 92
-123 180 -195 81 -68 161 -152 190 -200 21 -34 40 -119 46 -195 0 -8 5 -2 10
15 5 16 7 84 6 150 -2 119 -2 120 -38 175 -20 30 -55 102 -78 160 -24 58 -63
142 -88 188 -43 79 -88 192 -76 192 8 0 64 -59 100 -105 33 -44 106 -185 116
-225 3 -14 18 -32 33 -41 41 -25 373 -283 373 -291 1 -3 -8 -4 -19 -1 -16 4
-20 0 -20 -21 0 -20 -12 -33 -57 -63 -32 -21 -58 -44 -58 -50 0 -27 129 -143
203 -183 84 -46 112 -73 146 -143 l23 -48 11 43 c6 23 9 44 8 47 -2 3 -7 39
-10 78 -4 40 -11 85 -17 100 -6 16 -13 43 -15 61 l-4 33 92 -73 c173 -137 274
-206 284 -195 7 7 -101 114 -695 682 -63 61 -184 178 -269 260 -84 83 -182
169 -215 193 -87 61 -246 156 -302 181 -48 21 -95 28 -95 13 0 -22 -109 -169
-174 -237 -17 -16 -46 -53 -67 -82 -20 -29 -38 -50 -41 -48 -4 5 -21 -28 -97
-189 -50 -105 -92 -164 -178 -252 -28 -28 -52 -69 -73 -121 -37 -92 -106 -223
-166 -313 -120 -182 -138 -199 -214 -205 -47 -4 -50 -1 -120 125 -94 167 -79
149 -333 398 -81 79 -147 148 -147 154 0 20 81 122 196 247 l42 44 0 -28 c0
-16 7 -34 18 -42 17 -12 17 -15 1 -50 l-18 -38 20 25 c12 14 21 31 21 38 0 19
18 14 34 -10 7 -13 26 -75 41 -138 15 -63 32 -121 38 -128 12 -16 26 -4 32 29
10 48 44 245 50 289 3 25 8 52 10 60 2 8 7 30 10 49 11 66 28 68 55 7 15 -37
43 -66 63 -66 9 0 -6 56 -20 72 -10 11 -14 36 -12 80 2 77 13 100 42 96 21 -3
22 -8 22 -103 -1 -55 -4 -142 -9 -192 -11 -139 -19 -181 -52 -287 -46 -144
-20 -98 49 87 43 118 74 221 88 293 l21 112 65 53 c125 104 158 129 169 129 6
0 21 -24 35 -52 15 -34 53 -82 106 -136 46 -45 83 -80 83 -77 0 28 -48 118
-80 149 -22 22 -50 60 -62 85 -36 76 -112 183 -171 241 -90 87 -146 108 -197
73z m180 -103 c133 -145 129 -138 68 -133 -39 3 -66 13 -100 36 -58 39 -69 62
-58 113 5 22 9 40 10 42 0 1 0 10 0 19 0 12 8 7 28 -17 15 -18 38 -45 52 -60z
m-279 -53 c-5 -12 -21 -47 -35 -77 -14 -29 -26 -56 -26 -58 0 -2 12 4 27 13
38 26 99 60 93 53 -13 -15 -116 -81 -127 -81 -7 0 -13 -4 -13 -8 0 -3 -11 -14
-25 -23 -23 -15 -25 -15 -25 1 0 15 126 203 136 203 2 0 0 -10 -5 -23z m994
-235 c-3 -3 -11 0 -18 7 -9 10 -8 11 6 5 10 -3 15 -9 12 -12z m-1135 -15 c0
-2 -17 -19 -37 -38 -34 -31 -31 -21 6 24 12 15 31 23 31 14z m58 -26 c-7 -11
-19 -23 -26 -26 -8 -3 -4 8 8 26 24 33 39 34 18 0z m-170 -98 c-9 -10 -25 -36
-37 -58 -18 -33 -21 -36 -21 -16 0 26 44 91 62 91 6 0 5 -7 -4 -17z m1238 -94
c-15 -21 -28 -39 -30 -39 -2 0 8 34 23 76 25 73 26 75 29 39 2 -27 -4 -48 -22
-76z m23 -146 c-11 -38 -22 -75 -24 -83 -2 -8 -12 -40 -22 -70 -23 -66 -23
-82 2 -115 15 -18 17 -17 62 25 l46 45 -30 -45 c-17 -25 -38 -60 -47 -78 -9
-18 -21 -30 -25 -28 -10 7 -33 -18 -55 -59 l-16 -30 6 50 c2 28 6 77 8 110 4
72 92 345 111 345 2 0 -5 -30 -16 -67z m-1881 -19 c23 -8 65 -25 92 -39 27
-14 58 -26 69 -28 26 -4 35 -13 26 -26 -4 -7 -14 -5 -30 5 -26 17 -74 31 -140
40 -44 6 -136 33 -146 43 -4 3 -10 16 -13 28 l-7 22 53 -15 c29 -9 72 -22 96
-30z m-29 -136 c28 -45 84 -88 114 -88 9 0 25 -14 37 -31 21 -29 18 -27 -65
23 -95 58 -155 109 -155 131 0 30 41 9 69 -35z m-624 -73 c28 -19 64 -49 80
-67 l30 -32 -30 20 c-16 10 -66 37 -110 60 -44 22 -81 48 -83 57 -5 24 51 5
113 -38z m977 -27 c12 -17 17 -28 10 -25 -6 4 -21 22 -34 39 -12 17 -17 28
-10 25 6 -4 21 -22 34 -39z m-1122 -20 c0 -5 -5 -7 -10 -5 -6 1 -21 -23 -33
-54 -13 -30 -31 -66 -41 -80 -19 -25 -19 -22 9 46 7 17 18 45 24 63 7 17 17
32 22 32 5 0 9 8 9 18 0 14 2 15 10 2 5 -8 10 -18 10 -22z m-955 -164 c24 -51
68 -194 61 -201 -2 -2 -18 34 -36 79 -18 46 -46 112 -63 148 -16 36 -31 70
-34 75 -17 37 52 -60 72 -101z m2146 -27 c-21 -41 -26 -67 -26 -127 0 -67 4
-84 39 -155 21 -44 45 -96 53 -115 l14 -35 -20 25 c-33 42 -109 192 -119 236
-8 36 -5 52 24 125 19 46 34 91 34 100 0 23 14 32 20 14 3 -10 -5 -40 -19 -68z
m1402 -86 c-15 -61 -30 -111 -34 -111 -11 0 10 111 32 169 13 33 25 58 27 56
2 -2 -9 -53 -25 -114z m1108 74 c58 -45 180 -171 153 -157 -12 6 -51 40 -87
75 -36 36 -81 76 -99 91 -18 14 -28 26 -22 26 6 0 31 -16 55 -35z m-2409 -131
c11 -32 12 -42 4 -33 -16 17 -38 79 -28 79 4 0 15 -21 24 -46z m422 -259 c-25
-33 -28 -34 -40 -18 -19 26 -17 33 9 33 12 0 29 5 37 10 23 15 23 12 -6 -25z
m-3718 -250 c-24 -18 -87 -74 -160 -144 -52 -49 -55 -51 -29 -16 52 67 174
175 198 175 6 -1 2 -7 -9 -15z"/>
<path d="M5577 3846 l6 -38 -29 18 c-15 11 -25 14 -21 8 4 -6 9 -33 12 -58 3
-26 10 -57 14 -69 19 -49 4 -90 -53 -143 -86 -82 -89 -88 -83 -203 8 -133 -2
-142 -75 -71 -33 32 -54 47 -57 39 -2 -7 1 -15 8 -17 7 -2 23 -14 37 -26 32
-28 36 -77 12 -185 -10 -48 -21 -111 -24 -141 -4 -30 -8 -62 -9 -70 -3 -20 21
-66 57 -112 41 -49 34 -74 -24 -92 -23 -7 -23 -42 -1 -54 22 -13 74 3 94 28
26 31 0 113 -65 199 -30 41 -30 43 65 206 89 152 92 160 69 177 -37 27 -33 87
6 74 49 -15 144 -126 193 -225 43 -87 59 -156 61 -266 l1 -70 16 35 c12 25 17
65 17 135 l1 101 -66 109 c-97 159 -121 211 -126 275 -6 57 14 120 38 120 19
0 59 53 59 78 0 50 -41 146 -75 177 -18 17 -40 46 -49 65 l-15 35 6 -39z"/>
<path d="M5738 3612 c6 -62 6 -94 -1 -192 -5 -72 10 -122 42 -139 28 -15 44 9
49 74 l4 55 42 -4 c22 -2 51 0 63 5 28 10 41 -10 49 -73 3 -24 9 -65 14 -91 6
-26 10 -66 10 -88 0 -37 -1 -39 -25 -33 -20 5 -25 2 -25 -12 0 -27 35 -81 61
-95 38 -20 49 9 44 110 -2 47 -6 97 -9 111 -3 14 -7 41 -10 60 -8 51 -32 139
-51 183 l-16 38 -38 -30 c-45 -36 -51 -37 -94 -14 -43 22 -52 36 -77 115 -26
86 -40 94 -32 20z"/>
</g>
</svg>
